<svg xmlns="http://www.w3.org/2000/svg" viewBox="0 0 500 398.87"><defs><style>.cls-1{fill:#407bff;}.cls-2{fill:#263238;opacity:0.3;}.cls-3,.cls-5{opacity:0.5;}.cls-4,.cls-5{fill:#fff;}.cls-6{fill:#ebebeb;}.cls-7{fill:#f5f5f5;}.cls-8{fill:#e0e0e0;}.cls-9{fill:#e6e6e6;}</style></defs><title>foto4</title><g id="Plane"><polygon class="cls-1" points="79.33 256.7 49.77 239.03 66.98 235.66 112.79 244.75 79.33 256.7"/><polygon class="cls-2" points="79.33 256.7 49.77 239.03 66.98 235.66 112.79 244.75 79.33 256.7"/><path class="cls-1" d="M283.86,202.54l-36-45.15,13.31-2.61a57,57,0,0,1,32.19,3L363,185.73Z"/><path class="cls-2" d="M283.86,202.54l-36-45.15,13.31-2.61a57,57,0,0,1,32.19,3L363,185.73Z"/><path class="cls-1" d="M472.43,170.15l-10.68-2.81a68.27,68.27,0,0,0-31.68-.75L77.9,246.45l-3.33,15.18,13.74,9.8,356.31-69.77a68.34,68.34,0,0,0,31.55-15.34A9.38,9.38,0,0,0,472.43,170.15Z"/><rect class="cls-1" x="101.39" y="296.97" width="157.62" height="1.91" transform="translate(-58.01 43.98) rotate(-12)"/><rect class="cls-1" x="135.75" y="192.25" width="102.74" height="1.91" transform="translate(-36.08 43.13) rotate(-12)"/><rect class="cls-1" x="32.55" y="323.92" width="42.23" height="1.91" transform="translate(-66.38 18.26) rotate(-12)"/><path class="cls-2" d="M435.78,195.69,87.72,269.84a14.76,14.76,0,0,0-4.52,1.75,15.79,15.79,0,0,0,5.12-.17l356.29-69.77A68.18,68.18,0,0,0,461.39,196l1.31-.65A68.16,68.16,0,0,0,435.78,195.69Z"/><polygon class="cls-1" points="74.57 261.63 65.63 299.41 82.83 296.04 114.15 255.13 74.57 261.63"/><polygon class="cls-1" points="77.9 246.45 57.01 208.67 73.07 205.53 119.33 238.34 77.9 246.45"/><path class="cls-1" d="M287,218.5l-5.79,109h0a57,57,0,0,0,38.89-28.27l54.36-97.87Z"/><g class="cls-3"><rect class="cls-4" x="192.89" y="232.06" width="4.49" height="8.2" transform="translate(-43.46 44.02) rotate(-11.59)"/><rect class="cls-4" x="201.77" y="230.24" width="4.49" height="8.2" transform="translate(-42.9 45.74) rotate(-11.58)"/><rect class="cls-4" x="210.64" y="228.42" width="4.49" height="8.2" transform="translate(-42.36 47.49) rotate(-11.58)"/><rect class="cls-4" x="219.52" y="226.6" width="4.49" height="8.2" transform="translate(-41.81 49.23) rotate(-11.58)"/><rect class="cls-4" x="228.4" y="224.78" width="4.49" height="8.2" transform="translate(-41.26 50.98) rotate(-11.58)"/><rect class="cls-4" x="237.28" y="222.96" width="4.49" height="8.2" transform="translate(-40.72 52.73) rotate(-11.58)"/><rect class="cls-4" x="246.16" y="221.14" width="4.49" height="8.2" transform="translate(-40.17 54.47) rotate(-11.58)"/><rect class="cls-4" x="255.03" y="219.32" width="4.49" height="8.2" transform="translate(-39.64 56.24) rotate(-11.59)"/><rect class="cls-4" x="263.91" y="217.5" width="4.49" height="8.2" transform="translate(-39.08 57.96) rotate(-11.58)"/><rect class="cls-4" x="272.79" y="215.68" width="4.49" height="8.2" transform="translate(-38.53 59.71) rotate(-11.58)"/><rect class="cls-4" x="281.67" y="213.86" width="4.49" height="8.2" transform="translate(-37.98 61.45) rotate(-11.58)"/><rect class="cls-4" x="290.55" y="212.04" width="4.49" height="8.2" transform="translate(-37.44 63.2) rotate(-11.58)"/><rect class="cls-4" x="299.43" y="210.22" width="4.49" height="8.2" transform="translate(-36.9 64.97) rotate(-11.59)"/><rect class="cls-4" x="308.3" y="208.4" width="4.49" height="8.2" transform="translate(-36.34 66.69) rotate(-11.58)"/><rect class="cls-4" x="317.18" y="206.58" width="4.49" height="8.2" transform="translate(-35.8 68.44) rotate(-11.58)"/><rect class="cls-4" x="326.06" y="204.76" width="4.49" height="8.2" transform="translate(-35.25 70.18) rotate(-11.58)"/><rect class="cls-4" x="334.94" y="202.94" width="4.49" height="8.2" transform="translate(-34.7 71.92) rotate(-11.58)"/><rect class="cls-4" x="343.82" y="201.12" width="4.49" height="8.2" transform="translate(-34.16 73.68) rotate(-11.58)"/><rect class="cls-4" x="352.69" y="199.3" width="4.49" height="8.2" transform="translate(-33.61 75.42) rotate(-11.58)"/><rect class="cls-4" x="361.57" y="197.48" width="4.49" height="8.2" transform="translate(-33.08 77.2) rotate(-11.59)"/><rect class="cls-4" x="370.45" y="195.66" width="4.49" height="8.2" transform="translate(-32.52 78.91) rotate(-11.58)"/><rect class="cls-4" x="379.33" y="193.84" width="4.49" height="8.2" transform="translate(-31.98 80.66) rotate(-11.58)"/></g><path class="cls-5" d="M472.43,170.16l-10.7-2.82c-1.43-.37-2.88-.72-4.35-1l-15.76,3.08a4.07,4.07,0,0,0,1.56,8l31.7-6.21A8.83,8.83,0,0,0,472.43,170.16Z"/></g><g id="Background_Complete" data-name="Background Complete"><rect class="cls-6" y="382.4" width="500" height="0.25"/><rect class="cls-6" x="393.11" y="398.62" width="16.56" height="0.25"/><rect class="cls-6" x="329.19" y="394.99" width="37.81" height="0.25"/><rect class="cls-6" x="265" y="389.21" width="69.08" height="0.25"/><rect class="cls-6" x="52.46" y="390.89" width="12.69" height="0.25"/><rect class="cls-6" x="74.06" y="390.89" width="36.83" height="0.25"/><rect class="cls-6" x="152.33" y="395.11" width="59.53" height="0.25"/><path class="cls-6" d="M237,337.8H43.91a5.71,5.71,0,0,1-5.7-5.71V60.66A5.71,5.71,0,0,1,43.91,55H237a5.71,5.71,0,0,1,5.71,5.71V332.09A5.71,5.71,0,0,1,237,337.8ZM43.91,55.2a5.46,5.46,0,0,0-5.45,5.46V332.09a5.46,5.46,0,0,0,5.45,5.46H237a5.47,5.47,0,0,0,5.46-5.46V60.66A5.47,5.47,0,0,0,237,55.2Z"/><path class="cls-6" d="M453.31,337.8H260.21a5.72,5.72,0,0,1-5.71-5.71V60.66A5.72,5.72,0,0,1,260.21,55h193.1A5.71,5.71,0,0,1,459,60.66V332.09A5.71,5.71,0,0,1,453.31,337.8ZM260.21,55.2a5.47,5.47,0,0,0-5.46,5.46V332.09a5.47,5.47,0,0,0,5.46,5.46h193.1a5.47,5.47,0,0,0,5.46-5.46V60.66a5.47,5.47,0,0,0-5.46-5.46Z"/><rect class="cls-7" x="233.9" width="21.56" height="382.4"/><rect class="cls-8" x="255.46" width="3.03" height="382.4" transform="translate(513.95 382.4) rotate(180)"/><path class="cls-9" d="M139.17,343.88H25.5a12.66,12.66,0,0,1,12.67-12.66h101Z"/><path class="cls-8" d="M147.5,343.88H97.83a12.66,12.66,0,0,1,12.67-12.66h37Z"/><path class="cls-9" d="M218.59,343.88H104.92a12.66,12.66,0,0,1,12.67-12.66h101Z"/><path class="cls-8" d="M226.92,343.88H177.25a12.66,12.66,0,0,1,12.67-12.66h37Z"/><path class="cls-9" d="M380,343.88H266.29A12.66,12.66,0,0,1,279,331.22H380Z"/><path class="cls-8" d="M388.29,343.88H338.62a12.66,12.66,0,0,1,12.67-12.66h37Z"/><polygon class="cls-6" points="428.42 304.33 378.08 304.33 385.17 382.4 421.33 382.4 428.42 304.33"/><path class="cls-6" d="M402.75,317.35c-.92-32.3,6.63-99.17,20.14-126.37l.89.44c-13,26.12-21,93.33-20,125.9Z"/><path class="cls-6" d="M407.75,253.76s-3.31-31.27-15.53-40.86C385.67,232.64,399.09,239.44,407.75,253.76Z"/><path class="cls-6" d="M407.75,254.26a.51.51,0,0,1-.43-.24A90.94,90.94,0,0,0,400,244c-7.07-8.81-13.18-16.43-8.26-31.25a.5.5,0,0,1,.33-.32.49.49,0,0,1,.45.08c12.25,9.62,15.58,39.92,15.71,41.21a.48.48,0,0,1-.33.52Zm-15.28-40.51c-4.33,13.85,1.54,21.17,8.32,29.62,2.07,2.58,4.2,5.23,6.17,8.22C406,244.43,402.1,222,392.47,213.75Z"/><path class="cls-6" d="M409.56,241.91s13-28.91,27.64-34C437,228.68,422.39,231.17,409.56,241.91Z"/><path class="cls-6" d="M409.56,242.41a.49.49,0,0,1-.45-.7c.53-1.19,13.22-29.17,27.92-34.3a.5.5,0,0,1,.46.06.52.52,0,0,1,.21.41c-.14,15.79-8.42,21.19-18,27.43a100,100,0,0,0-9.79,7A.57.57,0,0,1,409.56,242.41Zm27.13-33.8c-11.82,4.74-22.56,25.08-25.73,31.54,2.73-2.12,5.49-3.92,8.18-5.67C428.34,228.48,436.3,223.3,436.69,208.61Z"/><path class="cls-6" d="M403.54,297.77s-5-43.5-20.18-55C375.76,267.1,392.63,280.43,403.54,297.77Z"/><path class="cls-6" d="M403.54,298.38a.6.6,0,0,1-.52-.28c-2.33-3.71-5-7.28-7.53-10.73-9.66-13.06-18.78-25.38-12.72-44.77a.61.61,0,0,1,.4-.4.63.63,0,0,1,.56.1c15.2,11.51,20.21,53.61,20.42,55.4a.62.62,0,0,1-.41.65A.69.69,0,0,1,403.54,298.38Zm-19.86-54.55c-5.34,18.3,3.47,30.21,12.79,42.81,2,2.76,4.14,5.59,6.1,8.52C401.21,285.71,395.82,254,383.68,243.83Z"/><path class="cls-6" d="M405.29,274.32s16.91-31,34.76-37.58C440.28,262.21,420.76,260.89,405.29,274.32Z"/><path class="cls-6" d="M405.29,274.93a.59.59,0,0,1-.39-.14.61.61,0,0,1-.15-.77c.69-1.27,17.23-31.26,35.09-37.85a.62.62,0,0,1,.83.57c.16,17.89-9.25,22.85-20.14,28.59-4.95,2.61-10.06,5.3-14.84,9.45A.62.62,0,0,1,405.29,274.93Zm34.15-37.29c-13.95,5.76-27.37,26.47-32,34.11a88,88,0,0,1,12.48-7.5C430.31,258.79,439.27,254.06,439.44,237.64Z"/><path class="cls-6" d="M413.25,222.13s-2.3-21.81-10.83-28.5C397.85,207.4,407.21,212.15,413.25,222.13Z"/><path class="cls-6" d="M413.25,222.48a.34.34,0,0,1-.29-.17,65.62,65.62,0,0,0-5.1-7c-4.94-6.15-9.2-11.46-5.77-21.8a.37.37,0,0,1,.23-.23.37.37,0,0,1,.32.06c8.54,6.71,10.87,27.85,11,28.75a.34.34,0,0,1-.23.36A.25.25,0,0,1,413.25,222.48ZM402.6,194.22c-3,9.67,1.07,14.77,5.8,20.66,1.45,1.8,2.93,3.66,4.31,5.74C412,215.63,409.31,200,402.6,194.22Z"/><path class="cls-6" d="M417.22,207.44s9-20.16,19.28-23.74C436.37,198.21,426.17,200,417.22,207.44Z"/><path class="cls-6" d="M417.22,207.79a.33.33,0,0,1-.21-.07.36.36,0,0,1-.11-.42c.38-.83,9.23-20.34,19.48-23.93a.36.36,0,0,1,.32,0,.33.33,0,0,1,.15.29c-.1,11-5.88,14.77-12.57,19.13a68.62,68.62,0,0,0-6.83,4.87A.34.34,0,0,1,417.22,207.79Zm18.92-23.58c-8.24,3.31-15.74,17.5-17.95,22,1.91-1.48,3.84-2.73,5.71-4C430.32,198.08,435.88,194.46,436.14,184.21Z"/><path class="cls-7" d="M156,194.68c-9.51-.67-13.62.44-17.73-8.11s-18.45-13.14-23.11-5.68-6.34,12.64-17.12,8.22-14.33-1.21-15.89,4.68-26.22,3.05-19,11.47h91.34S165.55,195.35,156,194.68Z"/><path class="cls-7" d="M438.8,149c-5.38-.38-7.7.25-10-4.59s-10.44-7.44-13.08-3.22-3.58,7.16-9.68,4.65-8.11-.68-9,2.65-14.84,1.73-10.75,6.49H438S444.18,149.34,438.8,149Z"/><path class="cls-7" d="M374.42,31.72c-2.67-4.34-10.3-5.78-17.12-2.41s-2.18-17.75-14.94-14.21c-18.22,5.06-13.15,20.17-20.74,18.79s-29.85,2.32-18.08,9.87h67.35S377.08,36.05,374.42,31.72Z"/></g></svg>