<svg xmlns="http://www.w3.org/2000/svg" viewBox="0 0 500 372.61"><defs><style>.cls-1{fill:#ebebeb;}.cls-2{fill:#e0e0e0;}.cls-3{fill:#f0f0f0;}.cls-4{fill:#f5f5f5;}.cls-5{fill:#e6e6e6;}.cls-6{fill:#407bff;}.cls-10,.cls-12,.cls-13,.cls-18,.cls-22,.cls-7,.cls-9{fill:#fff;}.cls-7{opacity:0.8;}.cls-10,.cls-11,.cls-12,.cls-13,.cls-15,.cls-17,.cls-19,.cls-22,.cls-7,.cls-8,.cls-9{isolation:isolate;}.cls-8{opacity:0.1;}.cls-9{opacity:0.5;}.cls-10{opacity:0.7;}.cls-11,.cls-13{opacity:0.2;}.cls-12,.cls-15{opacity:0.4;}.cls-14{fill:#263238;}.cls-16{fill:#ebb376;}.cls-17{opacity:0.3;}.cls-19{opacity:0.9;}.cls-20{fill:#d58745;}.cls-21{fill:none;stroke:#263238;stroke-linecap:round;stroke-linejoin:round;stroke-width:0.72px;}.cls-22{opacity:0.6;}</style></defs><title>foto1</title><g id="Background_Complete" data-name="Background Complete"><rect class="cls-1" y="327.45" width="500" height="0.25"/><rect class="cls-1" x="416.78" y="343.54" width="33.12" height="0.25"/><rect class="cls-1" x="322.53" y="346.26" width="8.69" height="0.25"/><rect class="cls-1" x="396.59" y="334.26" width="19.19" height="0.25"/><rect class="cls-1" x="52.46" y="335.94" width="43.19" height="0.25"/><rect class="cls-1" x="104.56" y="335.94" width="6.33" height="0.25"/><rect class="cls-1" x="131.47" y="340.16" width="93.68" height="0.25"/><path class="cls-1" d="M237,337.8H43.91a5.71,5.71,0,0,1-5.7-5.71V60.66A5.71,5.71,0,0,1,43.91,55H237a5.71,5.71,0,0,1,5.71,5.71V332.09A5.71,5.71,0,0,1,237,337.8ZM43.91,55.2a5.46,5.46,0,0,0-5.45,5.46V332.09a5.46,5.46,0,0,0,5.45,5.46H237a5.47,5.47,0,0,0,5.46-5.46V60.66A5.47,5.47,0,0,0,237,55.2Z" transform="translate(0 -54.95)"/><path class="cls-1" d="M453.31,337.8H260.21a5.72,5.72,0,0,1-5.71-5.71V60.66A5.72,5.72,0,0,1,260.21,55h193.1A5.71,5.71,0,0,1,459,60.66V332.09A5.71,5.71,0,0,1,453.31,337.8ZM260.21,55.2a5.47,5.47,0,0,0-5.46,5.46V332.09a5.47,5.47,0,0,0,5.46,5.46h193.1a5.47,5.47,0,0,0,5.46-5.46V60.66a5.47,5.47,0,0,0-5.46-5.46Z" transform="translate(0 -54.95)"/><path class="cls-1" d="M331,90.34H75.19l16.68,36.57a11.76,11.76,0,0,0,10.54,7.2h293.3a11.74,11.74,0,0,0,10.53-7.2l16.69-36.57Z" transform="translate(0 -54.95)"/><path class="cls-2" d="M422.92,90.34l-16.67,36.57a11.75,11.75,0,0,1-10.54,7.2H358.22a11.73,11.73,0,0,1-10.53-7.19L331,90.34Z" transform="translate(0 -54.95)"/><path class="cls-2" d="M333.94,127.38H227.23a6.34,6.34,0,0,1-5.16-3.57l-10.56-23.17c-.91-2-.06-3.58,1.89-3.58H320.11a6.32,6.32,0,0,1,5.16,3.58l10.57,23.17C336.74,125.78,335.89,127.38,333.94,127.38Z" transform="translate(0 -54.95)"/><path class="cls-3" d="M286,123.88H272a4,4,0,0,1-3.29-2.29h0c-.58-1.26,0-2.28,1.21-2.28h14a4,4,0,0,1,3.29,2.28h0C287.76,122.85,287.21,123.88,286,123.88Z" transform="translate(0 -54.95)"/><path class="cls-2" d="M211.61,127.38H104.9a6.33,6.33,0,0,1-5.16-3.57L89.17,100.64c-.9-2,0-3.58,1.89-3.58H197.77a6.32,6.32,0,0,1,5.16,3.58l10.57,23.17C214.4,125.78,213.55,127.38,211.61,127.38Z" transform="translate(0 -54.95)"/><path class="cls-3" d="M163.64,123.88h-14a4.06,4.06,0,0,1-3.3-2.29h0c-.57-1.26,0-2.28,1.21-2.28h14a4.06,4.06,0,0,1,3.3,2.28h0C165.42,122.85,164.88,123.88,163.64,123.88Z" transform="translate(0 -54.95)"/><path class="cls-4" d="M67.84,32.36H428.1a0,0,0,0,1,0,0V36a2.7,2.7,0,0,1-2.7,2.7H70.53a2.7,2.7,0,0,1-2.7-2.7V32.36A0,0,0,0,1,67.84,32.36Z"/><rect class="cls-5" x="367.57" y="242.79" width="32.04" height="34.71" rx="2.91"/><path class="cls-3" d="M380,306.79c0,2.55-1.76,4.61-3.94,4.61s-3.94-2.06-3.94-4.61,1.76-4.61,3.94-4.61S380,304.25,380,306.79Z" transform="translate(0 -54.95)"/><rect class="cls-2" x="374.53" y="250.53" width="0.73" height="2.63"/><rect class="cls-2" x="376.86" y="250.53" width="0.73" height="2.63"/><path class="cls-3" d="M394.81,306.79c0,2.55-1.76,4.61-3.94,4.61s-3.94-2.06-3.94-4.61,1.77-4.61,3.94-4.61S394.81,304.25,394.81,306.79Z" transform="translate(0 -54.95)"/><rect class="cls-2" x="389.34" y="250.53" width="0.73" height="2.63"/><rect class="cls-2" x="391.67" y="250.53" width="0.73" height="2.63"/><path class="cls-3" d="M380,323.22c0,2.55-1.76,4.61-3.94,4.61s-3.94-2.06-3.94-4.61,1.76-4.61,3.94-4.61S380,320.68,380,323.22Z" transform="translate(0 -54.95)"/><rect class="cls-2" x="374.53" y="266.95" width="0.73" height="2.63"/><rect class="cls-2" x="376.86" y="266.95" width="0.73" height="2.63"/><path class="cls-3" d="M394.81,323.22c0,2.55-1.76,4.61-3.94,4.61s-3.94-2.06-3.94-4.61,1.77-4.61,3.94-4.61S394.81,320.68,394.81,323.22Z" transform="translate(0 -54.95)"/><rect class="cls-2" x="389.34" y="266.95" width="0.73" height="2.63"/><rect class="cls-2" x="391.67" y="266.95" width="0.73" height="2.63"/></g><g id="Shadow"><ellipse id="_Path_" data-name="&lt;Path&gt;" class="cls-4" cx="250" cy="361.29" rx="193.89" ry="11.32"/></g><g id="Windows"><rect class="cls-6" x="282.57" y="102.29" width="96.38" height="127.45" rx="34"/><rect class="cls-7" x="282.57" y="102.29" width="96.38" height="127.45" rx="34"/><rect class="cls-8" x="276.19" y="185.54" width="109.13" height="79.74" rx="29.78" transform="translate(556.17 -160.3) rotate(90)"/><rect class="cls-6" x="292.88" y="117.89" width="75.74" height="105.13" rx="27.78"/><path class="cls-9" d="M368.63,200.63V250.2A27.79,27.79,0,0,1,340.84,278H320.67a27.8,27.8,0,0,1-27.79-27.78V200.63a27.79,27.79,0,0,1,27.79-27.78h20.17a27.78,27.78,0,0,1,27.72,25.87C368.61,199.35,368.63,200,368.63,200.63Z" transform="translate(0 -54.95)"/><path class="cls-8" d="M359.79,177.82c6.86,7.08,7.09,13.1,7.09,13.1-4.91-8.82-9.07-10.69-9.07-10.69H303.09c-6,4-9.23,13.28-9.43,13.86,1.52-8.51,7.45-16.27,7.45-16.27H288.63a31,31,0,0,1,27.93-17.57H345a31,31,0,0,1,27.93,17.58Z" transform="translate(0 -54.95)"/><path class="cls-6" d="M372,176.12H289.51a31,31,0,0,1,27.05-15.88H345A31,31,0,0,1,372,176.12Z" transform="translate(0 -54.95)"/><path class="cls-7" d="M372,176.12H289.51a31,31,0,0,1,27.05-15.88H345A31,31,0,0,1,372,176.12Z" transform="translate(0 -54.95)"/><path class="cls-8" d="M318.79,171h0a2.79,2.79,0,0,0,2.79,2.8h15.88a2.79,2.79,0,0,0,2.79-2.8h0a2.79,2.79,0,0,0-2.79-2.79H321.58A2.79,2.79,0,0,0,318.79,171Z" transform="translate(0 -54.95)"/><path class="cls-10" d="M337.13,173.77H321.9a1.78,1.78,0,0,1-1.78-1.78h0a1.78,1.78,0,0,1,1.78-1.78h15.23a1.78,1.78,0,0,1,1.78,1.78h0A1.78,1.78,0,0,1,337.13,173.77Z" transform="translate(0 -54.95)"/><path class="cls-8" d="M345,160.24H316.56a31,31,0,0,0-31,31v59.45a31,31,0,0,0,31,31H345a31,31,0,0,0,31-31V191.24A31,31,0,0,0,345,160.24Zm28,92.25a28,28,0,0,1-28,28H316.56a28,28,0,0,1-28-28V193a28,28,0,0,1,28-28H345a28,28,0,0,1,28,28Z" transform="translate(0 -54.95)"/><path class="cls-3" d="M368.63,200.63v22.5H337.72a10.41,10.41,0,1,1,0-20.81l.18,0a11.28,11.28,0,0,1,20.92-5.71,13.36,13.36,0,0,1,2.39-.22,12.76,12.76,0,0,1,7.35,2.31C368.61,199.35,368.63,200,368.63,200.63Z" transform="translate(0 -54.95)"/><path class="cls-3" d="M326.06,259.44a6.1,6.1,0,0,1-5.91,6.09H297.5a27.58,27.58,0,0,1-4.62-15.33V233.63a5,5,0,0,1,.55,0,11.26,11.26,0,0,1,9.63,5.43,13.42,13.42,0,0,1,2.38-.23,12.91,12.91,0,0,1,12.91,12.92,12.63,12.63,0,0,1-.13,1.86,6.27,6.27,0,0,1,1.75-.25A6.1,6.1,0,0,1,326.06,259.44Z" transform="translate(0 -54.95)"/><rect class="cls-6" x="130.56" y="102.29" width="96.38" height="127.45" rx="34"/><rect class="cls-7" x="130.56" y="102.29" width="96.38" height="127.45" rx="34"/><rect class="cls-8" x="124.18" y="185.54" width="109.13" height="79.74" rx="29.78" transform="translate(404.16 -8.29) rotate(90)"/><rect class="cls-6" x="140.87" y="117.89" width="75.74" height="105.13" rx="27.78"/><path class="cls-9" d="M216.62,200.63V250.2A27.79,27.79,0,0,1,188.83,278H168.66a27.8,27.8,0,0,1-27.79-27.78V200.63a27.79,27.79,0,0,1,27.79-27.78h20.17a27.78,27.78,0,0,1,27.72,25.87C216.6,199.35,216.62,200,216.62,200.63Z" transform="translate(0 -54.95)"/><path class="cls-8" d="M207.78,177.82c6.86,7.08,7.09,13.1,7.09,13.1-4.91-8.82-9.07-10.69-9.07-10.69H151.08c-6,4-9.23,13.28-9.43,13.86,1.52-8.51,7.45-16.27,7.45-16.27H136.62a31,31,0,0,1,27.93-17.57h28.39a31,31,0,0,1,27.93,17.58Z" transform="translate(0 -54.95)"/><path class="cls-6" d="M220,176.12H137.5a31,31,0,0,1,27.05-15.88h28.39A31,31,0,0,1,220,176.12Z" transform="translate(0 -54.95)"/><path class="cls-7" d="M220,176.12H137.5a31,31,0,0,1,27.05-15.88h28.39A31,31,0,0,1,220,176.12Z" transform="translate(0 -54.95)"/><path class="cls-8" d="M166.78,171h0a2.79,2.79,0,0,0,2.79,2.8h15.88a2.79,2.79,0,0,0,2.79-2.8h0a2.79,2.79,0,0,0-2.79-2.79H169.57A2.79,2.79,0,0,0,166.78,171Z" transform="translate(0 -54.95)"/><path class="cls-10" d="M185.13,173.77H169.89a1.78,1.78,0,0,1-1.78-1.78h0a1.78,1.78,0,0,1,1.78-1.78h15.24a1.78,1.78,0,0,1,1.78,1.78h0A1.78,1.78,0,0,1,185.13,173.77Z" transform="translate(0 -54.95)"/><path class="cls-8" d="M192.94,160.24H164.55a31,31,0,0,0-31,31v59.45a31,31,0,0,0,31,31h28.39a31,31,0,0,0,31-31V191.24A31,31,0,0,0,192.94,160.24Zm28,92.25a28,28,0,0,1-28,28H164.55a28,28,0,0,1-28-28V193a28,28,0,0,1,28-28h28.39a28,28,0,0,1,28,28Z" transform="translate(0 -54.95)"/><path class="cls-3" d="M185.28,215.28a4.34,4.34,0,0,0-4.34-4.34,4.23,4.23,0,0,0-1.24.18,9.68,9.68,0,0,0,.1-1.33,9.19,9.19,0,0,0-9.19-9.19,8.67,8.67,0,0,0-1.7.16A8,8,0,0,0,154,204.82h-.13a7.41,7.41,0,1,0,0,14.81h27.18A4.33,4.33,0,0,0,185.28,215.28Z" transform="translate(0 -54.95)"/><path class="cls-3" d="M206.76,253.87a2.41,2.41,0,0,0-2.4-2.4,2.61,2.61,0,0,0-.69.1,5.87,5.87,0,0,0,.05-.74,5.08,5.08,0,0,0-5.08-5.08,4.83,4.83,0,0,0-.94.09,4.44,4.44,0,0,0-8.24,2.24h-.08a4.1,4.1,0,1,0,0,8.19h15.05A2.4,2.4,0,0,0,206.76,253.87Z" transform="translate(0 -54.95)"/></g><g id="Character"><path class="cls-6" d="M330.64,339.44H303.83l-6.45-47.56a5.94,5.94,0,0,0-5.78-4.58h-6.2a5.94,5.94,0,0,0-5.94,5.94v54.08a7.88,7.88,0,0,0,7.88,7.88h43.3a7.88,7.88,0,0,0,0-15.76Z" transform="translate(0 -54.95)"/><path class="cls-9" d="M330.64,339.44H303.83l-6.45-47.56a5.94,5.94,0,0,0-5.78-4.58h-6.2a5.94,5.94,0,0,0-5.94,5.94v54.08a7.88,7.88,0,0,0,7.88,7.88h43.3a7.88,7.88,0,0,0,0-15.76Z" transform="translate(0 -54.95)"/><path class="cls-11" d="M324.43,339.44h-26.8l-6.45-47.56a6,6,0,0,0-5.78-4.58h0a5.94,5.94,0,0,0-5.94,5.94v54.08a7.88,7.88,0,0,0,7.88,7.88h37.09a7.88,7.88,0,0,0,0-15.76Z" transform="translate(0 -54.95)"/><path class="cls-6" d="M294.33,297.51h46.44a1.46,1.46,0,0,1,1.22,2.27l-2.15,3.3a3.65,3.65,0,0,1-3.06,1.66H295.2Z" transform="translate(0 -54.95)"/><path class="cls-9" d="M342,299.78l-2.15,3.3a3.66,3.66,0,0,1-3.06,1.65H295.2l-.88-7.22h46.45A1.46,1.46,0,0,1,342,299.78Z" transform="translate(0 -54.95)"/><path class="cls-11" d="M335.79,299.78l-2.16,3.3a3.64,3.64,0,0,1-3.06,1.65H295.2l-.88-7.22h40.24A1.47,1.47,0,0,1,335.79,299.78Z" transform="translate(0 -54.95)"/><rect class="cls-6" x="224.32" y="320.34" width="90.85" height="37.96"/><rect class="cls-12" x="224.32" y="320.34" width="90.85" height="37.96"/><rect class="cls-13" x="224.32" y="320.34" width="27.72" height="37.96"/><polygon class="cls-6" points="331.3 309 216.62 309 222.83 322.9 322.44 322.9 331.3 309"/><polygon class="cls-9" points="331.3 309 322.44 322.9 222.83 322.9 216.63 309 331.3 309"/><polygon class="cls-9" points="269.24 309 260.37 322.9 222.83 322.9 216.63 309 269.24 309"/><polygon class="cls-6" points="315.86 356.71 222.43 356.71 218 363.61 322.07 363.61 315.86 356.71"/><polygon class="cls-9" points="322.07 363.61 218 363.61 222.43 356.71 315.86 356.71 322.07 363.61"/><polygon class="cls-9" points="264.44 363.61 218 363.61 222.43 356.71 258.24 356.71 264.44 363.61"/><path class="cls-14" d="M295.74,337.27h-85l-8-106.21a6.08,6.08,0,0,1,4.15-6.25,5.68,5.68,0,0,1,1.94-.32h54a10.88,10.88,0,0,1,10.51,8A82,82,0,0,1,276.1,256s12.79,35.72,18.42,72.3C295,331.31,295.39,334.3,295.74,337.27Z" transform="translate(0 -54.95)"/><path class="cls-13" d="M295.74,337.27h-85l-8-106.21a6.08,6.08,0,0,1,4.15-6.25,5.68,5.68,0,0,1,1.94-.32h54a10.88,10.88,0,0,1,10.51,8A82,82,0,0,1,276.1,256s12.79,35.72,18.42,72.3C295,331.31,295.39,334.3,295.74,337.27Z" transform="translate(0 -54.95)"/><path class="cls-7" d="M218,224.81s9.16,4.33,9.84,29.65H268.5s1.87-24.31-8-29.65Z" transform="translate(0 -54.95)"/><path class="cls-11" d="M294.52,328.32c-5.45-2.17-13.1-4-23.64-4.35-18.86-.67-29.19,4.95-34.19,9.1-5.18-38.18-19.1-77.05-19.1-77.05a81.68,81.68,0,0,0-2.84-23.48,10.88,10.88,0,0,0-7.91-7.73,6.08,6.08,0,0,0-4.15,6.25l8,106.21h85C295.39,334.3,295,331.31,294.52,328.32Z" transform="translate(0 -54.95)"/><path class="cls-14" d="M341.8,346.14v5A12.8,12.8,0,0,1,329,364H218.93a8.53,8.53,0,0,1-8.52-8.54V333.34H329A12.8,12.8,0,0,1,341.8,346.14Z" transform="translate(0 -54.95)"/><path class="cls-13" d="M341.8,346.14v5A12.8,12.8,0,0,1,329,364H218.93a8.53,8.53,0,0,1-8.52-8.54V333.34H329A12.8,12.8,0,0,1,341.8,346.14Z" transform="translate(0 -54.95)"/><path class="cls-11" d="M270.88,346.14v5A12.81,12.81,0,0,1,258.07,364H218.93a8.53,8.53,0,0,1-8.52-8.54V333.34h47.66A12.81,12.81,0,0,1,270.88,346.14Z" transform="translate(0 -54.95)"/><path class="cls-6" d="M283.47,287.3c-1,2.2-27.92,1.46-29.5,0s23.63-21.38,28.94-21.12S286.36,281,283.47,287.3Z" transform="translate(0 -54.95)"/><path class="cls-15" d="M283.47,287.3c-1,2.2-27.92,1.46-29.5,0s23.63-21.38,28.94-21.12S286.36,281,283.47,287.3Z" transform="translate(0 -54.95)"/><path class="cls-14" d="M273,220.23s5.47-6.59,12.79-4.13,16.72,22.3,8.22,30.73-31.82,2.87-31.82,2.87-1.7-22.2,1.93-26.55A9,9,0,0,1,273,220.23Z" transform="translate(0 -54.95)"/><path class="cls-16" d="M296.66,253.13s8,11.69,8,14.58c0,.26-1.1,1.74-6.08-3.57-3.16-3.37-5.62-6.8-7.79-8l-.56,1.62-2.36,6.88s2.34,2,5.59,4.34c5.61,4.09,13.94,9.3,17.59,7.34,4.75-2.54-5.5-22.21-14-28a31.94,31.94,0,0,0-5.21-2.42c-1.74-.57-3.36-.75-3.89.25a10.66,10.66,0,0,0-.95,4.91c0,.76.07,1.27.07,1.27Z" transform="translate(0 -54.95)"/><path class="cls-11" d="M291.83,246c-.05,2-1,4.21-4.84,5.16a10.7,10.7,0,0,1,.95-4.92C288.47,245.21,290.09,245.4,291.83,246Z" transform="translate(0 -54.95)"/><path class="cls-6" d="M290.81,256.17c4.13,2.38,12.92,11,12.92,11l-2-6.07,7.69.55s5.82,11.34,2.19,15.74-25.11-12.24-25.11-12.24Z" transform="translate(0 -54.95)"/><path class="cls-17" d="M311.62,277.43c-1.91,2.34-8.83-1.23-14.94-5.11-5.41-3.44-10.17-7.13-10.17-7.13l2.36-4.94,1.94-4.08c4.13,2.38,12.93,11,12.93,11l-2-6.07,7.68.55S315.24,273,311.62,277.43Z" transform="translate(0 -54.95)"/><path class="cls-17" d="M296.68,272.32c-5.41-3.44-10.17-7.13-10.17-7.13l3-2.42S296.34,267.07,296.68,272.32Z" transform="translate(0 -54.95)"/><polygon class="cls-16" points="341.34 332.06 335.51 333.46 332.56 325.42 329.88 318.1 336.52 315.26 339.08 324.15 341.34 332.06"/><path class="cls-14" d="M334.1,388c-.14-.64,7.88-2,7.88-2s6,3.77,11,3.74,3,3.44-2.24,4.71l-13,3.15C334,398.48,335.55,394.72,334.1,388Z" transform="translate(0 -54.95)"/><path class="cls-14" d="M345.66,387.09a14.36,14.36,0,0,1-2.56-.3l-.07,0h0l-.06-.06a.08.08,0,0,1,0-.05.3.3,0,0,1,0-.1c0-.09.24-2.09,1.2-2.79a1.29,1.29,0,0,1,1-.22c.4.09.62.27.67.54.08.42-.38,1-.94,1.47a3.38,3.38,0,0,1,1.82-.23.89.89,0,0,1,.55.43.79.79,0,0,1,0,.89A2.12,2.12,0,0,1,345.66,387.09Zm-1.87-.61c1.29.21,2.84.3,3.14-.1,0,0,.1-.14-.05-.43a.47.47,0,0,0-.29-.22A5.34,5.34,0,0,0,343.79,386.48Zm1.08-2.54a.81.81,0,0,0-.49.17,3.53,3.53,0,0,0-.95,2c1.07-.72,2.05-1.61,2-2,0-.11-.22-.17-.34-.2Z" transform="translate(0 -54.95)"/><polygon class="cls-11" points="339.08 324.15 332.56 325.42 329.88 318.1 336.52 315.26 339.08 324.15"/><path class="cls-6" d="M338.49,374.85l-8.08,3s-21.57-53.93-26-54.12-49.57,20.56-60.88,9.05,5-39.21,5-39.21,27.21-3.89,29.26,2.26a42.9,42.9,0,0,1,1.15,5.51c.31,1.88.52,3.46.52,3.46h0c.84-.21,28.16-7.26,38.92,0C329.37,312.2,338.49,374.85,338.49,374.85Z" transform="translate(0 -54.95)"/><polygon class="cls-16" points="291.99 355.06 286.18 353.57 287.3 345.24 288.33 337.6 295.52 338.24 293.65 347.15 291.99 355.06"/><path class="cls-14" d="M284.61,408.25c0-.66,8.14-.05,8.14-.05s4.94,5.14,9.78,6.34,2.09,4.08-3.34,4l-13.41-.16C281.92,418.35,284.37,415.1,284.61,408.25Z" transform="translate(0 -54.95)"/><path class="cls-14" d="M297,410.33a10,10,0,0,1-3.38-1.07h0l-.05,0a.22.22,0,0,1,0-.08h0a.06.06,0,0,1,0,0h0a.16.16,0,0,1,0-.1c0-.09.74-2,1.84-2.42a1.28,1.28,0,0,1,1.05,0c.37.18.55.42.53.69,0,.43-.62.85-1.28,1.2a3.25,3.25,0,0,1,1.82.22.9.9,0,0,1,.43.55.8.8,0,0,1-.21.87A1.13,1.13,0,0,1,297,410.33Zm-2.64-1.19c1.19.52,2.68,1,3.06.67,0,0,.14-.11.06-.43a.42.42,0,0,0-.23-.28A5.17,5.17,0,0,0,294.39,409.14Zm1.47-2.22a1,1,0,0,0-.32.06,3.52,3.52,0,0,0-1.41,1.73c1.21-.44,2.37-1.06,2.4-1.43,0-.11-.18-.22-.29-.27A.85.85,0,0,0,295.86,406.92Z" transform="translate(0 -54.95)"/><polygon class="cls-11" points="293.61 347.33 287.26 345.4 288.31 337.68 295.51 338.28 293.61 347.33"/><polygon class="cls-6" points="327.07 319.91 338.84 315.91 339.35 320.73 330.42 323.89 327.07 319.91"/><path class="cls-6" d="M263.07,335.56s1.84,0,30.38-1.29c0,0-4.27,35.68-6.59,62.39l8.53,1.46s20.39-57.2,20.17-66.28-10.64-11.75-10.64-11.75S284.59,331.84,263.07,335.56Z" transform="translate(0 -54.95)"/><path class="cls-17" d="M263.07,335.56s1.84,0,30.38-1.29c0,0-4.27,35.68-6.59,62.39l8.53,1.46s20.39-57.2,20.17-66.28-10.64-11.75-10.64-11.75S284.59,331.84,263.07,335.56Z" transform="translate(0 -54.95)"/><polygon class="cls-6" points="285.61 339.12 297.34 340.45 295.07 345.05 285.58 343.83 285.61 339.12"/><path class="cls-17" d="M279.5,304.81l-15.91,3.31s8.79-4.86,15.39-6.77C279.29,303.23,279.5,304.81,279.5,304.81Z" transform="translate(0 -54.95)"/><polygon class="cls-14" points="249.23 234.39 248.57 238.63 277.83 240.88 278.6 235.88 249.23 234.39"/><polygon class="cls-11" points="249.23 234.39 248.57 238.63 277.83 240.88 278.6 235.88 249.23 234.39"/><rect class="cls-6" x="257.38" y="288.97" width="1.45" height="7.4" transform="translate(31.27 -79.8) rotate(5.87)"/><rect class="cls-18" x="265.19" y="290.62" width="6.42" height="4.87" transform="translate(19.35 -71.56) rotate(3.68)"/><rect class="cls-6" x="275.35" y="289.77" width="1.45" height="7.4" transform="translate(31.49 -81.67) rotate(5.88)"/><path class="cls-6" d="M249.23,289.35s3.63-36.21,9.67-39.55a67.4,67.4,0,0,1,31.91,6.37s-3,18-6.36,21.54-5.85,13.12-5.85,13.12Z" transform="translate(0 -54.95)"/><g class="cls-19"><path class="cls-18" d="M249.23,289.35s3.63-36.21,9.67-39.55a67.4,67.4,0,0,1,31.91,6.37s-3,18-6.36,21.54-5.85,13.12-5.85,13.12Z" transform="translate(0 -54.95)"/></g><path class="cls-16" d="M287.11,254.53c-1,2.54-4.21,8.7-12.37,8.21-9.3-.55-12.1-11.06-12.55-13A69.15,69.15,0,0,1,287.11,254.53Z" transform="translate(0 -54.95)"/><path class="cls-16" d="M278.1,252.39c-.12,1.75.82,2.25.82,2.25a3.54,3.54,0,0,1-4.21,3.69c-5.42-1.09-6.5-7.85-6.5-7.85,4.13-1.19,5.46-5.49,5.88-8.09a13.85,13.85,0,0,0,.2-2l7,5.41a26.4,26.4,0,0,0-2,3.09A9.21,9.21,0,0,0,278.1,252.39Z" transform="translate(0 -54.95)"/><path class="cls-11" d="M281.27,245.76a26.4,26.4,0,0,0-2,3.09,9.21,9.21,0,0,0-1.19,3.54c-4.18-.51-4-9.94-4-9.94l0-.06a13.85,13.85,0,0,0,.2-2Z" transform="translate(0 -54.95)"/><path class="cls-16" d="M279.76,223.17c7.55-.34,10.16,3.59,11.06,11.35,1.13,9.69-.72,16.69-10.25,15C267.62,247.31,267.22,223.72,279.76,223.17Z" transform="translate(0 -54.95)"/><path class="cls-20" d="M285.92,234.31a16.2,16.2,0,0,0,2.34,3,2.08,2.08,0,0,1-1.95.94Z" transform="translate(0 -54.95)"/><path class="cls-14" d="M281.27,233.9c.05.62-.25,1.15-.67,1.17s-.78-.45-.82-1.07.26-1.14.67-1.17S281.23,233.28,281.27,233.9Z" transform="translate(0 -54.95)"/><path class="cls-14" d="M280.28,232.87l1.31-.62S281,233.43,280.28,232.87Z" transform="translate(0 -54.95)"/><path class="cls-14" d="M289,233.25c0,.62-.26,1.14-.68,1.17s-.78-.45-.82-1.07.26-1.14.67-1.17S288.92,232.63,289,233.25Z" transform="translate(0 -54.95)"/><path class="cls-14" d="M288,232.22l1.31-.62S288.69,232.78,288,232.22Z" transform="translate(0 -54.95)"/><path class="cls-21" d="M280.93,228.61a3.93,3.93,0,0,0-3.15,1.45" transform="translate(0 -54.95)"/><path class="cls-21" d="M286.51,227.78a3.5,3.5,0,0,1,2.84,1.18" transform="translate(0 -54.95)"/><path class="cls-14" d="M272.08,236.26s3.25-6.36,2.5-11.13c0,0,14.69-6.78,16.11,8.38,0,0,.86-13.55-12.13-13.27s-12.09,19.26-5.14,24.62C273.42,244.86,270.07,240.23,272.08,236.26Z" transform="translate(0 -54.95)"/><path class="cls-16" d="M273.38,237.8a3.31,3.31,0,0,0-3.7-2.87c-2.33.36-3.23,5.21,2.64,6.11C273.17,241.16,273.6,240.33,273.38,237.8Z" transform="translate(0 -54.95)"/><path class="cls-21" d="M281.46,239.43a3.67,3.67,0,0,0,4,2.68" transform="translate(0 -54.95)"/><polygon class="cls-7" points="327.07 319.91 338.84 315.91 339.35 320.73 330.42 323.89 327.07 319.91"/><polygon class="cls-7" points="285.61 339.12 297.34 340.45 295.07 345.05 285.58 343.83 285.61 339.12"/><path class="cls-6" d="M264.28,249.37s2.63,24.83-15,35.7c0,0,2.07-23.5,6.36-33.48C255.59,251.59,258.38,249.17,264.28,249.37Z" transform="translate(0 -54.95)"/><path class="cls-17" d="M263.32,263.41a35.42,35.42,0,0,1-7.64,16.19,27.77,27.77,0,0,1-6.45,5.47s.35-4,1.07-9.39c.25-1.85.53-3.87.86-5.94.22-1.4.46-2.82.73-4.24.43-2.35.91-4.68,1.46-6.85a46.52,46.52,0,0,1,2.24-7.06s2.79-2.42,8.69-2.22A49.9,49.9,0,0,1,263.32,263.41Z" transform="translate(0 -54.95)"/><path class="cls-6" d="M283.47,252.39s2.12,23.57,0,34.91c0,0,8.65-17.47,7.34-31.13Z" transform="translate(0 -54.95)"/><path class="cls-17" d="M283.47,252.39s2.12,23.57,0,34.91c0,0,8.65-17.47,7.34-31.13Z" transform="translate(0 -54.95)"/><path class="cls-11" d="M255.59,267.17s-2.19,6-5.29,8.51c.25-1.85.53-3.87.86-5.94.22-1.4.46-2.82.73-4.24C253.3,264.69,254.68,264.93,255.59,267.17Z" transform="translate(0 -54.95)"/><path class="cls-16" d="M245.07,288l4.52,5.25s.34,2.94,2.39,3.75,12.72,1.79,14,1.79-.09-4.14-.08-5.33-6.18-3.41-7.79-3.68a21.51,21.51,0,0,0-4.74.2l-4.79-5.84Z" transform="translate(0 -54.95)"/><path class="cls-6" d="M255.59,251.59c-5.71,4.31-18.17,20.34-18.57,24.29s10.59,16.79,10.59,16.79l5.34-4.53s-8-9.28-7.61-11.36,10.25-9.61,10.25-9.61,1.85-2.34,2.52-8.78S255.59,251.59,255.59,251.59Z" transform="translate(0 -54.95)"/><path class="cls-17" d="M255.59,251.59c-5.71,4.31-18.17,20.34-18.57,24.29s10.59,16.79,10.59,16.79l5.34-4.53s-8-9.28-7.61-11.36,10.25-9.61,10.25-9.61,1.85-2.34,2.52-8.78S255.59,251.59,255.59,251.59Z" transform="translate(0 -54.95)"/><path class="cls-6" d="M250.85,339.44H224l-6.45-47.56a5.94,5.94,0,0,0-5.78-4.58h-6.2a5.94,5.94,0,0,0-5.94,5.94v54.08a7.88,7.88,0,0,0,7.88,7.88h43.3a7.88,7.88,0,1,0,0-15.76Z" transform="translate(0 -54.95)"/><path class="cls-9" d="M250.85,339.44H224l-6.45-47.56a5.94,5.94,0,0,0-5.78-4.58h-6.2a5.94,5.94,0,0,0-5.94,5.94v54.08a7.88,7.88,0,0,0,7.88,7.88h43.3a7.88,7.88,0,1,0,0-15.76Z" transform="translate(0 -54.95)"/><path class="cls-13" d="M244.64,339.44h-26.8l-6.46-47.56a5.93,5.93,0,0,0-5.77-4.58h0a5.94,5.94,0,0,0-5.94,5.94v54.08a7.88,7.88,0,0,0,7.88,7.88h37.09a7.88,7.88,0,1,0,0-15.76Z" transform="translate(0 -54.95)"/><path class="cls-6" d="M214.54,297.51H261a1.47,1.47,0,0,1,1.23,2.27l-2.15,3.3a3.67,3.67,0,0,1-3.06,1.66H215.41Z" transform="translate(0 -54.95)"/><path class="cls-9" d="M262.2,299.78l-2.15,3.3a3.66,3.66,0,0,1-3.06,1.65H215.41l-.88-7.22H261A1.46,1.46,0,0,1,262.2,299.78Z" transform="translate(0 -54.95)"/><path class="cls-13" d="M256,299.78l-2.15,3.3a3.64,3.64,0,0,1-3.06,1.65H215.41l-.88-7.22h40.24A1.46,1.46,0,0,1,256,299.78Z" transform="translate(0 -54.95)"/></g><g id="Chair"><path class="cls-6" d="M214.25,339.44h-26.8L181,291.88a5.93,5.93,0,0,0-5.77-4.58H169a5.94,5.94,0,0,0-5.94,5.94v54.08A7.88,7.88,0,0,0,171,355.2h43.3a7.88,7.88,0,0,0,0-15.76Z" transform="translate(0 -54.95)"/><path class="cls-9" d="M214.25,339.44h-26.8L181,291.88a5.93,5.93,0,0,0-5.77-4.58H169a5.94,5.94,0,0,0-5.94,5.94v54.08A7.88,7.88,0,0,0,171,355.2h43.3a7.88,7.88,0,0,0,0-15.76Z" transform="translate(0 -54.95)"/><path class="cls-11" d="M208,339.44h-26.8l-6.45-47.56A6,6,0,0,0,169,287.3h0a5.94,5.94,0,0,0-5.94,5.94v54.08A7.88,7.88,0,0,0,171,355.2H208a7.88,7.88,0,1,0,0-15.76Z" transform="translate(0 -54.95)"/><path class="cls-6" d="M177.94,297.51h46.44a1.47,1.47,0,0,1,1.23,2.27l-2.16,3.3a3.65,3.65,0,0,1-3.06,1.66H178.82Z" transform="translate(0 -54.95)"/><path class="cls-9" d="M225.6,299.78l-2.15,3.3a3.66,3.66,0,0,1-3.06,1.65H178.81l-.87-7.22h46.44A1.46,1.46,0,0,1,225.6,299.78Z" transform="translate(0 -54.95)"/><path class="cls-11" d="M219.4,299.78l-2.16,3.3a3.63,3.63,0,0,1-3.06,1.65H178.81l-.87-7.22h40.23A1.47,1.47,0,0,1,219.4,299.78Z" transform="translate(0 -54.95)"/><rect class="cls-6" x="107.93" y="320.34" width="90.85" height="37.96"/><rect class="cls-12" x="107.93" y="320.34" width="90.85" height="37.96"/><rect class="cls-13" x="107.93" y="320.34" width="27.72" height="37.96"/><polygon class="cls-6" points="214.91 309 100.23 309 106.44 322.9 206.05 322.9 214.91 309"/><polygon class="cls-9" points="214.91 309 206.05 322.9 106.44 322.9 100.24 309 214.91 309"/><polygon class="cls-9" points="152.85 309 143.99 322.9 106.44 322.9 100.24 309 152.85 309"/><polygon class="cls-6" points="199.47 356.71 106.05 356.71 101.61 363.61 205.68 363.61 199.47 356.71"/><polygon class="cls-9" points="205.68 363.61 101.61 363.61 106.04 356.71 199.47 356.71 205.68 363.61"/><polygon class="cls-9" points="148.06 363.61 101.61 363.61 106.04 356.71 141.85 356.71 148.06 363.61"/><path class="cls-14" d="M179.35,337.27h-85l-8-106.21a6.06,6.06,0,0,1,4.14-6.25,5.68,5.68,0,0,1,1.94-.32h54a10.87,10.87,0,0,1,10.5,8A81.32,81.32,0,0,1,159.71,256s12.79,35.72,18.42,72.3C178.59,331.31,179,334.3,179.35,337.27Z" transform="translate(0 -54.95)"/><path class="cls-13" d="M179.35,337.27h-85l-8-106.21a6.06,6.06,0,0,1,4.14-6.25,5.68,5.68,0,0,1,1.94-.32h54a10.87,10.87,0,0,1,10.5,8A81.32,81.32,0,0,1,159.71,256s12.79,35.72,18.42,72.3C178.59,331.31,179,334.3,179.35,337.27Z" transform="translate(0 -54.95)"/><path class="cls-7" d="M101.61,224.81s9.16,4.33,9.84,29.65h40.66s1.87-24.31-8-29.65Z" transform="translate(0 -54.95)"/><path class="cls-11" d="M178.13,328.32c-5.45-2.17-13.09-4-23.64-4.35-18.86-.67-29.19,4.95-34.19,9.1C115.12,294.89,101.2,256,101.2,256a81.32,81.32,0,0,0-2.84-23.48,10.88,10.88,0,0,0-7.91-7.73,6.06,6.06,0,0,0-4.14,6.25l8,106.21h85C179,334.3,178.59,331.31,178.13,328.32Z" transform="translate(0 -54.95)"/><path class="cls-14" d="M225.41,346.14v5a12.8,12.8,0,0,1-12.8,12.8H102.55A8.53,8.53,0,0,1,94,355.41V333.34H212.61A12.8,12.8,0,0,1,225.41,346.14Z" transform="translate(0 -54.95)"/><path class="cls-13" d="M225.41,346.14v5a12.8,12.8,0,0,1-12.8,12.8H102.55A8.53,8.53,0,0,1,94,355.41V333.34H212.61A12.8,12.8,0,0,1,225.41,346.14Z" transform="translate(0 -54.95)"/><path class="cls-11" d="M154.49,346.14v5a12.81,12.81,0,0,1-12.8,12.8H102.55A8.53,8.53,0,0,1,94,355.41V333.34h47.67A12.81,12.81,0,0,1,154.49,346.14Z" transform="translate(0 -54.95)"/><path class="cls-6" d="M148.41,273.11c-.79-.2-6.44-2.21-8.56,5.42s1.76,53.47,5.55,55.36,14.31-2.63,14.31-2.63l-2.14-1.78s-8.37,4.36-9.16,3.56-5.21-11.47-4.78-23.53S144.85,281,144.85,281Z" transform="translate(0 -54.95)"/><path class="cls-11" d="M148.41,273.11c-.79-.2-6.44-2.21-8.56,5.42s1.76,53.47,5.55,55.36,14.31-2.63,14.31-2.63l-2.14-1.78s-8.37,4.36-9.16,3.56-5.21-11.47-4.78-23.53S144.85,281,144.85,281Z" transform="translate(0 -54.95)"/><path class="cls-6" d="M206.76,329.9c0,.26-1.75,3.48-7.85,4.76h0a23.42,23.42,0,0,1-3.21.45c-28.48,2.09-40.88.4-43.43-2.66-2.14-2.59-10.31-53.54-9.91-57,.06-.49,3.22-7.52,10.49-9.05h.06a15.79,15.79,0,0,1,1.6-.23c2.56-.22,5-.35,7.37-.42h.06c9.55-.27,16.89.55,19.22,1.42,3.15,1.17,9.23,15.26,14.67,29.8C201.65,312.57,206.76,328.67,206.76,329.9Z" transform="translate(0 -54.95)"/><path class="cls-13" d="M206.76,329.9c0,.26-1.75,3.48-7.85,4.76h0a54.36,54.36,0,0,1-7.36.45c-18,0-26.31-2.46-27.69-4.76s-15.59-61.81-11-63.92h.06a15.79,15.79,0,0,1,1.6-.23c13.06-1.11,23.74-.09,26.65,1C187.67,269.59,206.76,327.53,206.76,329.9Z" transform="translate(0 -54.95)"/><path class="cls-6" d="M204.06,329.29s-28.55,3.95-33.5-3.37c0,0-5.93-20.17-5.74-22.94s22.75-3,28.69-2.11c4.43.69,7.89,4.06,10.66,9.68.58,1.18,1.14,2.47,1.66,3.85.32.84.63,1.71.93,2.62C209.89,326.5,204.06,329.29,204.06,329.29Z" transform="translate(0 -54.95)"/><path class="cls-11" d="M195.81,297c-10.68,1.7-32.05,3.59-35.54-7.62-4.68-15.06-9.09-18.22-13.29-19,0,0,1.53-3.37,14.88-4.64h.06c9.55-.27,16.89.55,19.22,1.42C184.29,268.34,190.37,282.43,195.81,297Z" transform="translate(0 -54.95)"/><path class="cls-6" d="M143.63,273c3.79-4.42,9.52-5.52,14.27,6.58s8.3,15.6,22.42,14.67,15.13-.39,12.28-11.7S184.21,266.4,183,265.7a8.17,8.17,0,0,0-3.67-.51s-22.28-2.55-28.79.51a5.92,5.92,0,0,0-4.51,2.9A27.65,27.65,0,0,0,143.63,273Z" transform="translate(0 -54.95)"/><path class="cls-13" d="M177.81,276.27l4,3.2a1.77,1.77,0,0,1,.26,2.51l-2.42,2.92a1.78,1.78,0,0,1-2.39.32l-4.29-3a1.76,1.76,0,0,1-.31-2.62l2.72-3.08A1.77,1.77,0,0,1,177.81,276.27Z" transform="translate(0 -54.95)"/><polygon class="cls-11" points="175.11 224.35 175.84 224.35 176.49 227.19 175.8 227.19 175.11 224.35"/><polygon class="cls-11" points="178.65 224.34 179.38 224.34 180.03 227.18 179.34 227.18 178.65 224.34"/><path class="cls-11" d="M205.83,314.4a24.93,24.93,0,0,1-7.87,1.44c-7.72.39-20.62-.2-23.42-1s-7.64-10.11-7.64-10.11,5.14,5,6.13,5.75c.82.66,23.38.23,31.14.06C204.75,311.73,205.31,313,205.83,314.4Z" transform="translate(0 -54.95)"/><rect class="cls-18" x="131.7" y="274.54" width="31.3" height="6.37"/><path class="cls-14" d="M151.33,330a6,6,0,0,0,0,5.23A3.35,3.35,0,0,0,151.33,330Z" transform="translate(0 -54.95)"/><path class="cls-6" d="M178.57,332.67a3.5,3.5,0,0,1-3.51,3.51h-44v-.66h18.22a2.86,2.86,0,0,0,0-5.71H131.05v-.65h44A3.51,3.51,0,0,1,178.57,332.67Z" transform="translate(0 -54.95)"/><polygon class="cls-11" points="131.7 276.25 144.81 276.61 131.7 276.82 149.2 277.49 131.7 278.13 147.6 279.02 131.7 279.66 143.2 280.03 131.7 280.31 131.7 275.08 147.68 275.68 131.7 276.25"/><path class="cls-22" d="M178.57,332.67a3.5,3.5,0,0,1-3.51,3.51h-44v-.66h18.22a2.86,2.86,0,0,0,0-5.71H131.05v-.65h44A3.51,3.51,0,0,1,178.57,332.67Z" transform="translate(0 -54.95)"/><path class="cls-11" d="M152.94,332.67a3.5,3.5,0,0,1-3.51,3.51H131.05v-.66h18.22a2.86,2.86,0,0,0,0-5.71H131.05v-.65h18.38A3.51,3.51,0,0,1,152.94,332.67Z" transform="translate(0 -54.95)"/><path class="cls-6" d="M161.49,332.67a3.52,3.52,0,0,1-3.51,3.51h-6a3.51,3.51,0,0,0,0-7h6A3.51,3.51,0,0,1,161.49,332.67Z" transform="translate(0 -54.95)"/><rect class="cls-18" x="135.42" y="267.51" width="31.3" height="6.37"/><path class="cls-6" d="M155.06,323a6,6,0,0,0,0,5.23A3.35,3.35,0,0,0,155.06,323Z" transform="translate(0 -54.95)"/><path class="cls-14" d="M182.3,325.65a3.52,3.52,0,0,1-3.51,3.51h-44v-.66H153a2.86,2.86,0,1,0,0-5.71H134.78v-.66h44A3.52,3.52,0,0,1,182.3,325.65Z" transform="translate(0 -54.95)"/><polygon class="cls-11" points="135.42 269.23 148.53 269.58 135.42 269.8 152.92 270.47 135.42 271.1 151.32 272 135.42 272.64 146.93 273 135.42 273.29 135.42 268.06 151.4 268.65 135.42 269.23"/><path class="cls-11" d="M156.67,325.65a3.52,3.52,0,0,1-3.52,3.51H134.78v-.66H153a2.86,2.86,0,1,0,0-5.71H134.78v-.66h18.37A3.53,3.53,0,0,1,156.67,325.65Z" transform="translate(0 -54.95)"/><path class="cls-22" d="M178,325.65a3.52,3.52,0,0,1-3.51,3.51H157.43a3.59,3.59,0,0,0,2.49-1,3.52,3.52,0,0,0-2.49-6h17.09A3.52,3.52,0,0,1,178,325.65Z" transform="translate(0 -54.95)"/><path class="cls-6" d="M134.46,339.44h-26.8l-6.46-47.56a5.94,5.94,0,0,0-5.78-4.58h-6.2a5.94,5.94,0,0,0-5.94,5.94v54.08a7.88,7.88,0,0,0,7.88,7.88h43.3a7.88,7.88,0,0,0,0-15.76Z" transform="translate(0 -54.95)"/><path class="cls-9" d="M134.46,339.44h-26.8l-6.46-47.56a5.94,5.94,0,0,0-5.78-4.58h-6.2a5.94,5.94,0,0,0-5.94,5.94v54.08a7.88,7.88,0,0,0,7.88,7.88h43.3a7.88,7.88,0,0,0,0-15.76Z" transform="translate(0 -54.95)"/><path class="cls-13" d="M128.25,339.44h-26.8L95,291.88a6,6,0,0,0-5.78-4.58h0a5.94,5.94,0,0,0-5.94,5.94v54.08a7.88,7.88,0,0,0,7.88,7.88h37.09a7.88,7.88,0,0,0,0-15.76Z" transform="translate(0 -54.95)"/><path class="cls-6" d="M98.15,297.51h46.44a1.47,1.47,0,0,1,1.23,2.27l-2.16,3.3a3.65,3.65,0,0,1-3.06,1.66H99Z" transform="translate(0 -54.95)"/><path class="cls-9" d="M145.81,299.78l-2.15,3.3a3.66,3.66,0,0,1-3.06,1.65H99l-.88-7.22h46.45A1.46,1.46,0,0,1,145.81,299.78Z" transform="translate(0 -54.95)"/><path class="cls-13" d="M139.61,299.78l-2.16,3.3a3.63,3.63,0,0,1-3.06,1.65H99l-.88-7.22h40.24A1.47,1.47,0,0,1,139.61,299.78Z" transform="translate(0 -54.95)"/></g></svg>